<svg width="430" height="60" viewBox="0 0 430 60" fill="none" xmlns="http://www.w3.org/2000/svg">
<path d="M83.7305 32.4961H77.0508V44H73.2812V15.5625H82.6953C85.8984 15.5625 88.3594 16.2917 90.0781 17.75C91.8099 19.2083 92.6758 21.3307 92.6758 24.1172C92.6758 25.888 92.194 27.431 91.2305 28.7461C90.2799 30.0612 88.9518 31.0443 87.2461 31.6953L93.9258 43.7656V44H89.9023L83.7305 32.4961ZM77.0508 29.4297H82.8125C84.6745 29.4297 86.1523 28.9479 87.2461 27.9844C88.3529 27.0208 88.9062 25.7318 88.9062 24.1172C88.9062 22.3594 88.3789 21.0117 87.3242 20.0742C86.2826 19.1367 84.7721 18.6615 82.793 18.6484H77.0508V29.4297ZM106.152 44.3906C103.288 44.3906 100.957 43.4531 99.1602 41.5781C97.3633 39.6901 96.4648 37.1706 96.4648 34.0195V33.3555C96.4648 31.2591 96.862 29.3906 97.6562 27.75C98.4635 26.0964 99.5833 24.8073 101.016 23.8828C102.461 22.9453 104.023 22.4766 105.703 22.4766C108.451 22.4766 110.586 23.3815 112.109 25.1914C113.633 27.0013 114.395 29.5924 114.395 32.9648V34.4688H100.078C100.13 36.5521 100.736 38.2383 101.895 39.5273C103.066 40.8034 104.551 41.4414 106.348 41.4414C107.624 41.4414 108.704 41.181 109.59 40.6602C110.475 40.1393 111.25 39.4492 111.914 38.5898L114.121 40.3086C112.35 43.0299 109.694 44.3906 106.152 44.3906ZM105.703 25.4453C104.245 25.4453 103.021 25.9792 102.031 27.0469C101.042 28.1016 100.43 29.5859 100.195 31.5H110.781V31.2266C110.677 29.3906 110.182 27.9714 109.297 26.9688C108.411 25.9531 107.214 25.4453 105.703 25.4453ZM131.641 44C131.432 43.5833 131.263 42.8411 131.133 41.7734C129.453 43.5182 127.448 44.3906 125.117 44.3906C123.034 44.3906 121.322 43.8047 119.98 42.6328C118.652 41.4479 117.988 39.9505 117.988 38.1406C117.988 35.9401 118.822 34.2344 120.488 33.0234C122.168 31.7995 124.525 31.1875 127.559 31.1875H131.074V29.5273C131.074 28.2643 130.697 27.2617 129.941 26.5195C129.186 25.7643 128.073 25.3867 126.602 25.3867C125.312 25.3867 124.232 25.7122 123.359 26.3633C122.487 27.0143 122.051 27.8021 122.051 28.7266H118.418C118.418 27.6719 118.789 26.6562 119.531 25.6797C120.286 24.6901 121.302 23.9089 122.578 23.3359C123.867 22.763 125.28 22.4766 126.816 22.4766C129.251 22.4766 131.159 23.0885 132.539 24.3125C133.919 25.5234 134.635 27.1966 134.688 29.332V39.0586C134.688 40.9987 134.935 42.5417 135.43 43.6875V44H131.641ZM125.645 41.2461C126.777 41.2461 127.852 40.9531 128.867 40.3672C129.883 39.7812 130.618 39.0195 131.074 38.082V33.7461H128.242C123.815 33.7461 121.602 35.0417 121.602 37.6328C121.602 38.7656 121.979 39.651 122.734 40.2891C123.49 40.9271 124.46 41.2461 125.645 41.2461ZM148.828 41.4414C150.117 41.4414 151.243 41.0508 152.207 40.2695C153.171 39.4883 153.704 38.5117 153.809 37.3398H157.227C157.161 38.5508 156.745 39.7031 155.977 40.7969C155.208 41.8906 154.18 42.763 152.891 43.4141C151.615 44.0651 150.26 44.3906 148.828 44.3906C145.951 44.3906 143.659 43.4336 141.953 41.5195C140.26 39.5924 139.414 36.9622 139.414 33.6289V33.0234C139.414 30.9661 139.792 29.1367 140.547 27.5352C141.302 25.9336 142.383 24.6901 143.789 23.8047C145.208 22.9193 146.882 22.4766 148.809 22.4766C151.178 22.4766 153.145 23.1862 154.707 24.6055C156.283 26.0247 157.122 27.8672 157.227 30.1328H153.809C153.704 28.7656 153.184 27.6458 152.246 26.7734C151.322 25.888 150.176 25.4453 148.809 25.4453C146.973 25.4453 145.547 26.1094 144.531 27.4375C143.529 28.7526 143.027 30.6602 143.027 33.1602V33.8438C143.027 36.2786 143.529 38.1536 144.531 39.4688C145.534 40.7839 146.966 41.4414 148.828 41.4414ZM166.191 17.75V22.8672H170.137V25.6602H166.191V38.7656C166.191 39.612 166.367 40.25 166.719 40.6797C167.07 41.0964 167.669 41.3047 168.516 41.3047C168.932 41.3047 169.505 41.2266 170.234 41.0703V44C169.284 44.2604 168.359 44.3906 167.461 44.3906C165.846 44.3906 164.629 43.9023 163.809 42.9258C162.988 41.9492 162.578 40.5625 162.578 38.7656V25.6602H158.73V22.8672H162.578V17.75H166.191ZM206.719 44H202.949L188.633 22.0859V44H184.863V15.5625H188.633L202.988 37.5742V15.5625H206.719V44ZM225.859 44C225.651 43.5833 225.482 42.8411 225.352 41.7734C223.672 43.5182 221.667 44.3906 219.336 44.3906C217.253 44.3906 215.54 43.8047 214.199 42.6328C212.871 41.4479 212.207 39.9505 212.207 38.1406C212.207 35.9401 213.04 34.2344 214.707 33.0234C216.387 31.7995 218.743 31.1875 221.777 31.1875H225.293V29.5273C225.293 28.2643 224.915 27.2617 224.16 26.5195C223.405 25.7643 222.292 25.3867 220.82 25.3867C219.531 25.3867 218.451 25.7122 217.578 26.3633C216.706 27.0143 216.27 27.8021 216.27 28.7266H212.637C212.637 27.6719 213.008 26.6562 213.75 25.6797C214.505 24.6901 215.521 23.9089 216.797 23.3359C218.086 22.763 219.499 22.4766 221.035 22.4766C223.47 22.4766 225.378 23.0885 226.758 24.3125C228.138 25.5234 228.854 27.1966 228.906 29.332V39.0586C228.906 40.9987 229.154 42.5417 229.648 43.6875V44H225.859ZM219.863 41.2461C220.996 41.2461 222.07 40.9531 223.086 40.3672C224.102 39.7812 224.837 39.0195 225.293 38.082V33.7461H222.461C218.034 33.7461 215.82 35.0417 215.82 37.6328C215.82 38.7656 216.198 39.651 216.953 40.2891C217.708 40.9271 218.678 41.2461 219.863 41.2461ZM239.473 17.75V22.8672H243.418V25.6602H239.473V38.7656C239.473 39.612 239.648 40.25 240 40.6797C240.352 41.0964 240.951 41.3047 241.797 41.3047C242.214 41.3047 242.786 41.2266 243.516 41.0703V44C242.565 44.2604 241.641 44.3906 240.742 44.3906C239.128 44.3906 237.91 43.9023 237.09 42.9258C236.27 41.9492 235.859 40.5625 235.859 38.7656V25.6602H232.012V22.8672H235.859V17.75H239.473ZM251.582 44H247.969V22.8672H251.582V44ZM247.676 17.2617C247.676 16.6758 247.852 16.181 248.203 15.7773C248.568 15.3737 249.102 15.1719 249.805 15.1719C250.508 15.1719 251.042 15.3737 251.406 15.7773C251.771 16.181 251.953 16.6758 251.953 17.2617C251.953 17.8477 251.771 18.3359 251.406 18.7266C251.042 19.1172 250.508 19.3125 249.805 19.3125C249.102 19.3125 248.568 19.1172 248.203 18.7266C247.852 18.3359 247.676 17.8477 247.676 17.2617ZM264.355 39.0977L269.59 22.8672H273.281L265.703 44H262.949L255.293 22.8672H258.984L264.355 39.0977ZM285.254 44.3906C282.389 44.3906 280.059 43.4531 278.262 41.5781C276.465 39.6901 275.566 37.1706 275.566 34.0195V33.3555C275.566 31.2591 275.964 29.3906 276.758 27.75C277.565 26.0964 278.685 24.8073 280.117 23.8828C281.562 22.9453 283.125 22.4766 284.805 22.4766C287.552 22.4766 289.688 23.3815 291.211 25.1914C292.734 27.0013 293.496 29.5924 293.496 32.9648V34.4688H279.18C279.232 36.5521 279.837 38.2383 280.996 39.5273C282.168 40.8034 283.652 41.4414 285.449 41.4414C286.725 41.4414 287.806 41.181 288.691 40.6602C289.577 40.1393 290.352 39.4492 291.016 38.5898L293.223 40.3086C291.452 43.0299 288.796 44.3906 285.254 44.3906ZM284.805 25.4453C283.346 25.4453 282.122 25.9792 281.133 27.0469C280.143 28.1016 279.531 29.5859 279.297 31.5H289.883V31.2266C289.779 29.3906 289.284 27.9714 288.398 26.9688C287.513 25.9531 286.315 25.4453 284.805 25.4453Z" fill="#3182CE"/>
<path d="M307.422 44V15.5625H317.383C320.833 15.5625 323.451 16.2266 325.234 17.5547C327.018 18.8698 327.91 20.8034 327.91 23.3555C327.91 24.7487 327.552 25.9792 326.836 27.0469C326.12 28.1016 325.124 28.8763 323.848 29.3711C325.306 29.7357 326.452 30.4714 327.285 31.5781C328.132 32.6849 328.555 34.0391 328.555 35.6406C328.555 38.375 327.682 40.4453 325.938 41.8516C324.193 43.2578 321.706 43.974 318.477 44H307.422ZM313.281 31.6172V39.293H318.301C319.681 39.293 320.755 38.9674 321.523 38.3164C322.305 37.6523 322.695 36.7409 322.695 35.582C322.695 32.9779 321.348 31.6562 318.652 31.6172H313.281ZM313.281 27.4766H317.617C320.573 27.4245 322.051 26.2461 322.051 23.9414C322.051 22.6523 321.673 21.7279 320.918 21.168C320.176 20.5951 318.997 20.3086 317.383 20.3086H313.281V27.4766ZM344.473 28.1602C343.704 28.056 343.027 28.0039 342.441 28.0039C340.306 28.0039 338.906 28.7266 338.242 30.1719V44H332.598V22.8672H337.93L338.086 25.3867C339.219 23.4466 340.788 22.4766 342.793 22.4766C343.418 22.4766 344.004 22.5612 344.551 22.7305L344.473 28.1602ZM356.543 44.3906C353.444 44.3906 350.918 43.4401 348.965 41.5391C347.025 39.638 346.055 37.1055 346.055 33.9414V33.3945C346.055 31.2721 346.465 29.3776 347.285 27.7109C348.105 26.0312 349.264 24.7422 350.762 23.8438C352.272 22.9323 353.991 22.4766 355.918 22.4766C358.809 22.4766 361.081 23.388 362.734 25.2109C364.401 27.0339 365.234 29.6185 365.234 32.9648V35.2695H351.777C351.96 36.6497 352.507 37.7565 353.418 38.5898C354.342 39.4232 355.508 39.8398 356.914 39.8398C359.089 39.8398 360.788 39.0521 362.012 37.4766L364.785 40.582C363.939 41.7799 362.793 42.7174 361.348 43.3945C359.902 44.0586 358.301 44.3906 356.543 44.3906ZM355.898 27.0469C354.779 27.0469 353.867 27.4245 353.164 28.1797C352.474 28.9349 352.031 30.0156 351.836 31.4219H359.688V30.9727C359.661 29.7227 359.323 28.7591 358.672 28.082C358.021 27.3919 357.096 27.0469 355.898 27.0469ZM378.184 44.3906C375.085 44.3906 372.559 43.4401 370.605 41.5391C368.665 39.638 367.695 37.1055 367.695 33.9414V33.3945C367.695 31.2721 368.105 29.3776 368.926 27.7109C369.746 26.0312 370.905 24.7422 372.402 23.8438C373.913 22.9323 375.632 22.4766 377.559 22.4766C380.449 22.4766 382.721 23.388 384.375 25.2109C386.042 27.0339 386.875 29.6185 386.875 32.9648V35.2695H373.418C373.6 36.6497 374.147 37.7565 375.059 38.5898C375.983 39.4232 377.148 39.8398 378.555 39.8398C380.729 39.8398 382.428 39.0521 383.652 37.4766L386.426 40.582C385.579 41.7799 384.434 42.7174 382.988 43.3945C381.543 44.0586 379.941 44.3906 378.184 44.3906ZM377.539 27.0469C376.419 27.0469 375.508 27.4245 374.805 28.1797C374.115 28.9349 373.672 30.0156 373.477 31.4219H381.328V30.9727C381.302 29.7227 380.964 28.7591 380.312 28.082C379.661 27.3919 378.737 27.0469 377.539 27.0469ZM396.582 39.4492H406.914V44H389.375V40.5625L399.316 27.4375H389.668V22.8672H406.602V26.207L396.582 39.4492ZM419.863 44.3906C416.764 44.3906 414.238 43.4401 412.285 41.5391C410.345 39.638 409.375 37.1055 409.375 33.9414V33.3945C409.375 31.2721 409.785 29.3776 410.605 27.7109C411.426 26.0312 412.585 24.7422 414.082 23.8438C415.592 22.9323 417.311 22.4766 419.238 22.4766C422.129 22.4766 424.401 23.388 426.055 25.2109C427.721 27.0339 428.555 29.6185 428.555 32.9648V35.2695H415.098C415.28 36.6497 415.827 37.7565 416.738 38.5898C417.663 39.4232 418.828 39.8398 420.234 39.8398C422.409 39.8398 424.108 39.0521 425.332 37.4766L428.105 40.582C427.259 41.7799 426.113 42.7174 424.668 43.3945C423.223 44.0586 421.621 44.3906 419.863 44.3906ZM419.219 27.0469C418.099 27.0469 417.188 27.4245 416.484 28.1797C415.794 28.9349 415.352 30.0156 415.156 31.4219H423.008V30.9727C422.982 29.7227 422.643 28.7591 421.992 28.082C421.341 27.3919 420.417 27.0469 419.219 27.0469Z" fill="#2A4365"/>
<path d="M50.625 11.7188C50.625 5.25703 45.3681 0 38.9062 0C32.4444 0 27.1875 5.25703 27.1875 11.7188C27.1875 13.0132 28.2368 14.0625 29.5312 14.0625C30.8257 14.0625 31.875 13.0132 31.875 11.7188C31.875 7.84172 35.0292 4.6875 38.9062 4.6875C42.7833 4.6875 45.9375 7.84172 45.9375 11.7188C45.9375 15.5958 42.7833 18.75 38.9062 18.75H2.34375C1.0493 18.75 0 19.7993 0 21.0938C0 22.3882 1.0493 23.4375 2.34375 23.4375H38.9062C45.3681 23.4375 50.625 18.1805 50.625 11.7188Z" fill="#3182CE"/>
<path d="M60 48.2812C60 54.743 54.7431 60 48.2812 60C41.8194 60 36.5625 54.743 36.5625 48.2812C36.5625 46.9868 37.6118 45.9375 38.9062 45.9375C40.2007 45.9375 41.25 46.9868 41.25 48.2812C41.25 52.1583 44.4042 55.3125 48.2812 55.3125C52.1583 55.3125 55.3125 52.1583 55.3125 48.2812C55.3125 44.4042 52.1583 41.25 48.2812 41.25H11.7188C10.4243 41.25 9.375 40.2007 9.375 38.9062C9.375 37.6118 10.4243 36.5625 11.7188 36.5625H48.2812C54.7431 36.5625 60 41.8195 60 48.2812Z" fill="#2A4365"/>
<path d="M45.9374 30C45.9374 28.7055 44.8881 27.6562 43.5936 27.6562H7.03113C5.73667 27.6562 4.68738 28.7055 4.68738 30C4.68738 31.2945 5.73667 32.3438 7.03113 32.3438H25.3124H43.5936C44.8881 32.3438 45.9374 31.2945 45.9374 30Z" fill="#2B6CB0"/>
</svg>
