<svg width="227" height="32" viewBox="0 0 227 32" fill="none" xmlns="http://www.w3.org/2000/svg">
<path d="M43.8187 16.248H40.4789V22H38.5941V7.78125H43.3011C44.9027 7.78125 46.1332 8.14583 46.9926 8.875C47.8584 9.60417 48.2914 10.6654 48.2914 12.0586C48.2914 12.944 48.0505 13.7155 47.5687 14.373C47.0935 15.0306 46.4294 15.5221 45.5765 15.8477L48.9164 21.8828V22H46.9047L43.8187 16.248ZM40.4789 14.7148H43.3597C44.2907 14.7148 45.0297 14.474 45.5765 13.9922C46.1299 13.5104 46.4066 12.8659 46.4066 12.0586C46.4066 11.1797 46.1429 10.5059 45.6156 10.0371C45.0948 9.56836 44.3396 9.33073 43.35 9.32422H40.4789V14.7148ZM55.0297 22.1953C53.5974 22.1953 52.432 21.7266 51.5336 20.7891C50.6351 19.8451 50.1859 18.5853 50.1859 17.0098V16.6777C50.1859 15.6296 50.3845 14.6953 50.7816 13.875C51.1853 13.0482 51.7452 12.4036 52.4613 11.9414C53.184 11.4727 53.9652 11.2383 54.8051 11.2383C56.1788 11.2383 57.2465 11.6908 58.0082 12.5957C58.7699 13.5007 59.1508 14.7962 59.1508 16.4824V17.2344H51.9926C52.0186 18.276 52.3213 19.1191 52.9008 19.7637C53.4867 20.4017 54.2289 20.7207 55.1273 20.7207C55.7653 20.7207 56.3057 20.5905 56.7484 20.3301C57.1911 20.0697 57.5785 19.7246 57.9105 19.2949L59.014 20.1543C58.1286 21.515 56.8005 22.1953 55.0297 22.1953ZM54.8051 12.7227C54.0759 12.7227 53.4639 12.9896 52.9691 13.5234C52.4743 14.0508 52.1683 14.793 52.0511 15.75H57.3441V15.6133C57.292 14.6953 57.0446 13.9857 56.6019 13.4844C56.1592 12.9766 55.5603 12.7227 54.8051 12.7227ZM67.7738 22C67.6696 21.7917 67.585 21.4206 67.5199 20.8867C66.6801 21.7591 65.6774 22.1953 64.5121 22.1953C63.4704 22.1953 62.6143 21.9023 61.9437 21.3164C61.2797 20.724 60.9476 19.9753 60.9476 19.0703C60.9476 17.9701 61.3643 17.1172 62.1976 16.5117C63.0375 15.8997 64.2159 15.5938 65.7328 15.5938H67.4906V14.7637C67.4906 14.1322 67.3018 13.6309 66.9242 13.2598C66.5466 12.8822 65.9899 12.6934 65.2543 12.6934C64.6097 12.6934 64.0694 12.8561 63.6332 13.1816C63.197 13.5072 62.9789 13.901 62.9789 14.3633H61.1625C61.1625 13.8359 61.348 13.3281 61.7191 12.8398C62.0967 12.3451 62.6045 11.9544 63.2426 11.668C63.8871 11.3815 64.5935 11.2383 65.3617 11.2383C66.5791 11.2383 67.5329 11.5443 68.223 12.1562C68.9131 12.7617 69.2712 13.5983 69.2972 14.666V19.5293C69.2972 20.4993 69.4209 21.2708 69.6683 21.8438V22H67.7738ZM64.7758 20.623C65.3422 20.623 65.8793 20.4766 66.3871 20.1836C66.8949 19.8906 67.2627 19.5098 67.4906 19.041V16.873H66.0746C63.861 16.873 62.7543 17.5208 62.7543 18.8164C62.7543 19.3828 62.9431 19.8255 63.3207 20.1445C63.6983 20.4635 64.1833 20.623 64.7758 20.623ZM76.3676 20.7207C77.0121 20.7207 77.5752 20.5254 78.057 20.1348C78.5388 19.7441 78.8057 19.2559 78.8578 18.6699H80.5668C80.5342 19.2754 80.3259 19.8516 79.9418 20.3984C79.5577 20.9453 79.0433 21.3815 78.3988 21.707C77.7608 22.0326 77.0837 22.1953 76.3676 22.1953C74.9288 22.1953 73.7829 21.7168 72.9301 20.7598C72.0837 19.7962 71.6605 18.4811 71.6605 16.8145V16.5117C71.6605 15.4831 71.8493 14.5684 72.2269 13.7676C72.6045 12.9668 73.1449 12.3451 73.848 11.9023C74.5577 11.4596 75.3942 11.2383 76.3578 11.2383C77.5427 11.2383 78.5258 11.5931 79.307 12.3027C80.0948 13.0124 80.5147 13.9336 80.5668 15.0664H78.8578C78.8057 14.3828 78.5453 13.8229 78.0765 13.3867C77.6143 12.944 77.0414 12.7227 76.3578 12.7227C75.4398 12.7227 74.7269 13.0547 74.2191 13.7188C73.7178 14.3763 73.4672 15.3301 73.4672 16.5801V16.9219C73.4672 18.1393 73.7178 19.0768 74.2191 19.7344C74.7204 20.3919 75.4366 20.7207 76.3676 20.7207ZM85.0492 8.875V11.4336H87.0219V12.8301H85.0492V19.3828C85.0492 19.806 85.1371 20.125 85.3129 20.3398C85.4886 20.5482 85.7881 20.6523 86.2113 20.6523C86.4196 20.6523 86.7061 20.6133 87.0707 20.5352V22C86.5954 22.1302 86.1332 22.1953 85.684 22.1953C84.8767 22.1953 84.2679 21.9512 83.8578 21.4629C83.4476 20.9746 83.2426 20.2812 83.2426 19.3828V12.8301H81.3187V11.4336H83.2426V8.875H85.0492ZM105.313 22H103.428L96.2699 11.043V22H94.3851V7.78125H96.2699L103.448 18.7871V7.78125H105.313V22ZM114.883 22C114.779 21.7917 114.694 21.4206 114.629 20.8867C113.789 21.7591 112.787 22.1953 111.621 22.1953C110.58 22.1953 109.724 21.9023 109.053 21.3164C108.389 20.724 108.057 19.9753 108.057 19.0703C108.057 17.9701 108.474 17.1172 109.307 16.5117C110.147 15.8997 111.325 15.5938 112.842 15.5938H114.6V14.7637C114.6 14.1322 114.411 13.6309 114.034 13.2598C113.656 12.8822 113.099 12.6934 112.364 12.6934C111.719 12.6934 111.179 12.8561 110.743 13.1816C110.306 13.5072 110.088 13.901 110.088 14.3633H108.272C108.272 13.8359 108.457 13.3281 108.828 12.8398C109.206 12.3451 109.714 11.9544 110.352 11.668C110.996 11.3815 111.703 11.2383 112.471 11.2383C113.689 11.2383 114.642 11.5443 115.332 12.1562C116.023 12.7617 116.381 13.5983 116.407 14.666V19.5293C116.407 20.4993 116.53 21.2708 116.778 21.8438V22H114.883ZM111.885 20.623C112.452 20.623 112.989 20.4766 113.496 20.1836C114.004 19.8906 114.372 19.5098 114.6 19.041V16.873H113.184C110.97 16.873 109.864 17.5208 109.864 18.8164C109.864 19.3828 110.052 19.8255 110.43 20.1445C110.808 20.4635 111.293 20.623 111.885 20.623ZM121.69 8.875V11.4336H123.662V12.8301H121.69V19.3828C121.69 19.806 121.778 20.125 121.953 20.3398C122.129 20.5482 122.429 20.6523 122.852 20.6523C123.06 20.6523 123.347 20.6133 123.711 20.5352V22C123.236 22.1302 122.774 22.1953 122.325 22.1953C121.517 22.1953 120.909 21.9512 120.498 21.4629C120.088 20.9746 119.883 20.2812 119.883 19.3828V12.8301H117.959V11.4336H119.883V8.875H121.69ZM127.745 22H125.938V11.4336H127.745V22ZM125.791 8.63086C125.791 8.33789 125.879 8.09049 126.055 7.88867C126.237 7.68685 126.504 7.58594 126.856 7.58594C127.207 7.58594 127.474 7.68685 127.657 7.88867C127.839 8.09049 127.93 8.33789 127.93 8.63086C127.93 8.92383 127.839 9.16797 127.657 9.36328C127.474 9.55859 127.207 9.65625 126.856 9.65625C126.504 9.65625 126.237 9.55859 126.055 9.36328C125.879 9.16797 125.791 8.92383 125.791 8.63086ZM134.131 19.5488L136.748 11.4336H138.594L134.805 22H133.428L129.6 11.4336H131.446L134.131 19.5488ZM144.58 22.1953C143.148 22.1953 141.983 21.7266 141.084 20.7891C140.186 19.8451 139.737 18.5853 139.737 17.0098V16.6777C139.737 15.6296 139.935 14.6953 140.332 13.875C140.736 13.0482 141.296 12.4036 142.012 11.9414C142.735 11.4727 143.516 11.2383 144.356 11.2383C145.73 11.2383 146.797 11.6908 147.559 12.5957C148.321 13.5007 148.702 14.7962 148.702 16.4824V17.2344H141.543C141.569 18.276 141.872 19.1191 142.452 19.7637C143.037 20.4017 143.78 20.7207 144.678 20.7207C145.316 20.7207 145.856 20.5905 146.299 20.3301C146.742 20.0697 147.129 19.7246 147.461 19.2949L148.565 20.1543C147.679 21.515 146.351 22.1953 144.58 22.1953ZM144.356 12.7227C143.627 12.7227 143.015 12.9896 142.52 13.5234C142.025 14.0508 141.719 14.793 141.602 15.75H146.895V15.6133C146.843 14.6953 146.595 13.9857 146.153 13.4844C145.71 12.9766 145.111 12.7227 144.356 12.7227Z" fill="#3182CE"/>
<path d="M155.664 22V7.78125H160.645C162.37 7.78125 163.679 8.11328 164.571 8.77734C165.463 9.4349 165.909 10.4017 165.909 11.6777C165.909 12.3743 165.73 12.9896 165.371 13.5234C165.013 14.0508 164.515 14.4382 163.877 14.6855C164.606 14.8678 165.179 15.2357 165.596 15.7891C166.019 16.3424 166.231 17.0195 166.231 17.8203C166.231 19.1875 165.795 20.2227 164.922 20.9258C164.05 21.6289 162.806 21.987 161.192 22H155.664ZM158.594 15.8086V19.6465H161.104C161.794 19.6465 162.331 19.4837 162.715 19.1582C163.106 18.8262 163.301 18.3704 163.301 17.791C163.301 16.4889 162.627 15.8281 161.28 15.8086H158.594ZM158.594 13.7383H160.762C162.24 13.7122 162.979 13.123 162.979 11.9707C162.979 11.3262 162.79 10.8639 162.412 10.584C162.041 10.2975 161.452 10.1543 160.645 10.1543H158.594V13.7383ZM174.19 14.0801C173.806 14.028 173.467 14.002 173.174 14.002C172.106 14.002 171.407 14.3633 171.075 15.0859V22H168.252V11.4336H170.918L170.996 12.6934C171.563 11.7233 172.347 11.2383 173.35 11.2383C173.662 11.2383 173.955 11.2806 174.229 11.3652L174.19 14.0801ZM180.225 22.1953C178.675 22.1953 177.412 21.7201 176.436 20.7695C175.466 19.819 174.981 18.5527 174.981 16.9707V16.6973C174.981 15.6361 175.186 14.6888 175.596 13.8555C176.006 13.0156 176.586 12.3711 177.334 11.9219C178.09 11.4661 178.949 11.2383 179.912 11.2383C181.358 11.2383 182.494 11.694 183.321 12.6055C184.154 13.5169 184.571 14.8092 184.571 16.4824V17.6348H177.842C177.933 18.3249 178.207 18.8783 178.662 19.2949C179.125 19.7116 179.707 19.9199 180.411 19.9199C181.498 19.9199 182.347 19.526 182.959 18.7383L184.346 20.291C183.923 20.89 183.35 21.3587 182.627 21.6973C181.905 22.0293 181.104 22.1953 180.225 22.1953ZM179.903 13.5234C179.343 13.5234 178.887 13.7122 178.536 14.0898C178.19 14.4674 177.969 15.0078 177.871 15.7109H181.797V15.4863C181.784 14.8613 181.615 14.3796 181.289 14.041C180.964 13.696 180.502 13.5234 179.903 13.5234ZM191.045 22.1953C189.496 22.1953 188.233 21.7201 187.256 20.7695C186.286 19.819 185.801 18.5527 185.801 16.9707V16.6973C185.801 15.6361 186.006 14.6888 186.416 13.8555C186.827 13.0156 187.406 12.3711 188.155 11.9219C188.91 11.4661 189.769 11.2383 190.733 11.2383C192.178 11.2383 193.314 11.694 194.141 12.6055C194.974 13.5169 195.391 14.8092 195.391 16.4824V17.6348H188.662C188.754 18.3249 189.027 18.8783 189.483 19.2949C189.945 19.7116 190.528 19.9199 191.231 19.9199C192.318 19.9199 193.168 19.526 193.78 18.7383L195.166 20.291C194.743 20.89 194.17 21.3587 193.448 21.6973C192.725 22.0293 191.924 22.1953 191.045 22.1953ZM190.723 13.5234C190.163 13.5234 189.707 13.7122 189.356 14.0898C189.011 14.4674 188.789 15.0078 188.692 15.7109H192.618V15.4863C192.605 14.8613 192.435 14.3796 192.11 14.041C191.784 13.696 191.322 13.5234 190.723 13.5234ZM200.245 19.7246H205.411V22H196.641V20.2812L201.612 13.7188H196.787V11.4336H205.254V13.1035L200.245 19.7246ZM211.885 22.1953C210.336 22.1953 209.073 21.7201 208.096 20.7695C207.126 19.819 206.641 18.5527 206.641 16.9707V16.6973C206.641 15.6361 206.846 14.6888 207.256 13.8555C207.666 13.0156 208.246 12.3711 208.995 11.9219C209.75 11.4661 210.609 11.2383 211.573 11.2383C213.018 11.2383 214.154 11.694 214.981 12.6055C215.814 13.5169 216.231 14.8092 216.231 16.4824V17.6348H209.502C209.593 18.3249 209.867 18.8783 210.323 19.2949C210.785 19.7116 211.368 19.9199 212.071 19.9199C213.158 19.9199 214.008 19.526 214.62 18.7383L216.006 20.291C215.583 20.89 215.01 21.3587 214.287 21.6973C213.565 22.0293 212.764 22.1953 211.885 22.1953ZM211.563 13.5234C211.003 13.5234 210.547 13.7122 210.196 14.0898C209.851 14.4674 209.629 15.0078 209.532 15.7109H213.457V15.4863C213.444 14.8613 213.275 14.3796 212.95 14.041C212.624 13.696 212.162 13.5234 211.563 13.5234Z" fill="#2A4365"/>
<path d="M26.7253 6.18641C26.7253 2.77522 23.9501 0 20.5389 0C17.1276 0 14.3525 2.77522 14.3525 6.18641C14.3525 6.86976 14.9064 7.42369 15.5898 7.42369C16.2731 7.42369 16.827 6.86976 16.827 6.18641C16.827 4.1397 18.4922 2.47456 20.5389 2.47456C22.5856 2.47456 24.2507 4.1397 24.2507 6.18641C24.2507 8.23312 22.5856 9.89826 20.5389 9.89826H1.23728C0.553931 9.89826 0 10.4522 0 11.1355C0 11.8189 0.553931 12.3728 1.23728 12.3728H20.5389C23.9501 12.3728 26.7253 9.5976 26.7253 6.18641Z" fill="#3182CE"/>
<path d="M31.6744 25.488C31.6744 28.8992 28.8993 31.6744 25.488 31.6744C22.0768 31.6744 19.3016 28.8992 19.3016 25.488C19.3016 24.8046 19.8555 24.2507 20.5389 24.2507C21.2222 24.2507 21.7762 24.8046 21.7762 25.488C21.7762 27.5347 23.4413 29.1998 25.488 29.1998C27.5347 29.1998 29.1999 27.5347 29.1999 25.488C29.1999 23.4413 27.5347 21.7762 25.488 21.7762H6.18641C5.50306 21.7762 4.94913 21.2222 4.94913 20.5389C4.94913 19.8555 5.50306 19.3016 6.18641 19.3016H25.488C28.8993 19.3016 31.6744 22.0768 31.6744 25.488Z" fill="#2A4365"/>
<path d="M24.2507 15.8372C24.2507 15.1539 23.6967 14.5999 23.0134 14.5999H3.71177C3.02842 14.5999 2.47449 15.1539 2.47449 15.8372C2.47449 16.5206 3.02842 17.0745 3.71177 17.0745H13.3626H23.0134C23.6967 17.0745 24.2507 16.5206 24.2507 15.8372Z" fill="#2B6CB0"/>
</svg>
