<svg width="32" height="32" viewBox="0 0 32 32" fill="none" xmlns="http://www.w3.org/2000/svg">
<path d="M26.7253 6.18641C26.7253 2.77522 23.9501 0 20.5389 0C17.1276 0 14.3525 2.77522 14.3525 6.18641C14.3525 6.86976 14.9064 7.42369 15.5898 7.42369C16.2731 7.42369 16.827 6.86976 16.827 6.18641C16.827 4.1397 18.4922 2.47456 20.5389 2.47456C22.5856 2.47456 24.2507 4.1397 24.2507 6.18641C24.2507 8.23312 22.5856 9.89826 20.5389 9.89826H1.23728C0.553931 9.89826 0 10.4522 0 11.1355C0 11.8189 0.553931 12.3728 1.23728 12.3728H20.5389C23.9501 12.3728 26.7253 9.5976 26.7253 6.18641Z" fill="#3182CE"/>
<path d="M31.6744 25.488C31.6744 28.8992 28.8993 31.6744 25.488 31.6744C22.0768 31.6744 19.3016 28.8992 19.3016 25.488C19.3016 24.8046 19.8555 24.2507 20.5389 24.2507C21.2222 24.2507 21.7762 24.8046 21.7762 25.488C21.7762 27.5347 23.4413 29.1998 25.488 29.1998C27.5347 29.1998 29.1999 27.5347 29.1999 25.488C29.1999 23.4413 27.5347 21.7762 25.488 21.7762H6.18641C5.50306 21.7762 4.94913 21.2222 4.94913 20.5389C4.94913 19.8555 5.50306 19.3016 6.18641 19.3016H25.488C28.8993 19.3016 31.6744 22.0768 31.6744 25.488Z" fill="#2A4365"/>
<path d="M24.2507 15.8372C24.2507 15.1539 23.6967 14.5999 23.0134 14.5999H3.71177C3.02842 14.5999 2.47449 15.1539 2.47449 15.8372C2.47449 16.5206 3.02842 17.0745 3.71177 17.0745H13.3626H23.0134C23.6967 17.0745 24.2507 16.5206 24.2507 15.8372Z" fill="#2B6CB0"/>
</svg>
